<?xml version="1.0" encoding="UTF-8"?>
<svg width="457" height="133" viewBox="0 0 457 133" xmlns="http://www.w3.org/2000/svg" role="img" aria-label="TicketHub logo">
  <defs>
    <mask id="ticket-cutouts">
      <rect width="457" height="133" fill="#ffffff"/>
      <circle cx="313.5" cy="10" r="7.2" fill="#000000"/>
      <circle cx="313.5" cy="107" r="7.2" fill="#000000"/>
    </mask>
  </defs>
  <path d="M261.0,10.0 L423.0,10.0 L419.0,12.0 L423.0,14.0 L419.0,16.0 L423.0,18.0 L419.0,20.0 L423.0,22.0 L419.0,24.0 L423.0,26.0 L419.0,28.0 L423.0,30.0 L419.0,32.0 L423.0,34.0 L419.0,36.0 L423.0,38.0 L419.0,40.0 L423.0,42.0 L419.0,44.0 L423.0,46.0 L419.0,48.0 L423.0,50.0 L419.0,52.0 L423.0,54.0 L419.0,56.0 L423.0,58.0 L419.0,60.0 L423.0,62.0 L419.0,64.0 L423.0,66.0 L419.0,68.0 L423.0,70.0 L419.0,72.0 L423.0,74.0 L419.0,76.0 L423.0,78.0 L419.0,80.0 L423.0,82.0 L419.0,84.0 L423.0,86.0 L419.0,88.0 L423.0,90.0 L419.0,92.0 L423.0,94.0 L419.0,96.0 L423.0,98.0 L419.0,100.0 L423.0,102.0 L419.0,104.0 L423.0,106.0 L419.0,107.0 L423.0,107.0 L261.0,107.0 L265.0,105.0 L261.0,103.0 L265.0,101.0 L261.0,99.0 L265.0,97.0 L261.0,95.0 L265.0,93.0 L261.0,91.0 L265.0,89.0 L261.0,87.0 L265.0,85.0 L261.0,83.0 L265.0,81.0 L261.0,79.0 L265.0,77.0 L261.0,75.0 L265.0,73.0 L261.0,71.0 L265.0,69.0 L261.0,67.0 L265.0,65.0 L261.0,63.0 L265.0,61.0 L261.0,59.0 L265.0,57.0 L261.0,55.0 L265.0,53.0 L261.0,51.0 L265.0,49.0 L261.0,47.0 L265.0,45.0 L261.0,43.0 L265.0,41.0 L261.0,39.0 L265.0,37.0 L261.0,35.0 L265.0,33.0 L261.0,31.0 L265.0,29.0 L261.0,27.0 L265.0,25.0 L261.0,23.0 L265.0,21.0 L261.0,19.0 L265.0,17.0 L261.0,15.0 L265.0,13.0 L261.0,11.0 L265.0,10.0 L261.0,10.0 Z" fill="#f43f5e" mask="url(#ticket-cutouts)"/>
  <path d="M47.460,85.000 L35.157,85.000 L35.157,40.314 L22.000,40.314 L22.000,30.731 L60.618,30.731 L60.618,40.314 L47.460,40.314 L47.460,85.000 Z" fill="#f43f5e"/>
  <path d="M79.540,43.509 L79.540,85.000 L67.380,85.000 L67.380,43.509 L79.540,43.509 Z" fill="#f43f5e"/>
  <path d="M105.000,85.000 Q96.118,85.000 91.059,79.870 Q86.000,74.740 86.000,63.720 Q86.000,56.120 88.541,51.334 Q91.094,46.549 95.619,44.269 Q100.143,41.989 105.998,41.989 Q109.797,41.989 113.063,42.820 Q116.329,43.651 118.537,44.791 L114.963,53.306 Q112.683,52.320 110.819,51.714 Q108.954,51.109 106.757,51.109 Q102.803,51.109 100.594,54.220 Q98.398,57.331 98.398,63.649 Q98.398,69.871 100.630,72.840 Q102.874,75.809 106.757,75.809 Q109.643,75.809 112.256,74.859 Q114.880,73.909 117.243,72.234 L117.243,81.889 Q114.737,83.551 111.888,84.276 Q109.037,85.000 105.000,85.000 Z" fill="#f43f5e"/>
  <path d="M143.160,53.080 Q143.160,55.431 142.970,57.759 Q142.780,60.074 142.483,62.426 L142.709,62.426 Q143.314,60.834 144.609,59.243 Q145.903,57.640 147.114,56.120 L157.066,43.509 L170.674,43.509 L156.009,61.511 L171.506,85.000 L157.600,85.000 L147.649,68.209 L143.160,72.080 L143.160,85.000 L131.000,85.000 L131.000,27.240 L143.160,27.240 L143.160,53.080 Z" fill="#f43f5e"/>
  <path d="M195.000,41.989 Q203.360,41.989 208.181,46.893 Q213.014,51.786 213.014,60.834 L213.014,66.309 L188.314,66.309 Q188.469,71.094 190.784,73.837 Q193.100,76.569 197.434,76.569 Q201.234,76.569 204.310,75.773 Q207.397,74.966 210.663,73.291 L210.663,82.031 Q207.849,83.551 204.536,84.276 Q201.234,85.000 196.377,85.000 Q190.440,85.000 185.844,82.684 Q181.249,80.369 178.624,75.654 Q176.000,70.940 176.000,63.791 Q176.000,52.926 181.249,47.463 Q186.498,41.989 195.000,41.989 Z M195.237,50.040 Q192.494,50.040 190.666,52.166 Q188.849,54.291 188.540,58.780 L201.840,58.780 Q201.769,54.980 200.166,52.510 Q198.574,50.040 195.237,50.040 Z" fill="#f43f5e"/>
  <path d="M244.280,75.951 Q246.109,75.951 247.664,75.571 Q249.220,75.191 250.894,74.669 L250.894,83.100 Q248.994,83.860 246.441,84.430 Q243.900,85.000 240.480,85.000 Q236.834,85.000 233.984,83.789 Q231.134,82.566 229.531,79.573 Q227.940,76.569 227.940,71.249 L227.940,51.251 L223.000,51.251 L223.000,46.466 L228.926,42.666 L232.274,33.926 L240.100,33.926 L240.100,42.749 L250.443,42.749 L250.443,51.251 L240.100,51.251 L240.100,71.249 Q240.100,73.600 241.240,74.776 Q242.380,75.951 244.280,75.951 Z" fill="#f43f5e"/>
  <path d="M74 22 L82 30 L74 38 L66 30 Z" fill="#f43f5e"/>
  <path d="M315.786,85.000 L303.400,85.000 L303.400,61.594 L285.303,61.594 L285.303,85.000 L273.000,85.000 L273.000,30.731 L285.303,30.731 L285.303,52.011 L303.400,52.011 L303.400,30.731 L315.786,30.731 L315.786,85.000 Z" fill="#ffe715"/>
  <path d="M364.240,42.749 L364.240,84.240 L355.049,84.240 L353.457,78.920 L352.769,78.920 Q350.869,82.114 347.674,83.563 Q344.480,85.000 340.834,85.000 Q334.837,85.000 330.919,81.390 Q327.000,77.780 327.000,69.800 L327.000,42.749 L339.160,42.749 L339.160,66.986 Q339.160,71.391 340.454,73.671 Q341.749,75.951 344.634,75.951 Q349.040,75.951 350.560,72.424 Q352.080,68.886 352.080,62.271 L352.080,42.749 L364.240,42.749 Z" fill="#ffe715"/>
  <path d="M387.160,39.934 Q387.160,42.286 387.006,44.566 Q386.863,46.846 386.709,48.140 L387.160,48.140 Q388.680,45.551 391.221,43.770 Q393.774,41.989 397.954,41.989 Q404.260,41.989 408.286,47.427 Q412.323,52.854 412.323,63.411 Q412.323,74.051 408.214,79.526 Q404.106,85.000 397.574,85.000 Q393.394,85.000 391.031,83.373 Q388.680,81.734 387.160,79.680 L386.329,79.680 L384.429,84.240 L375.000,84.240 L375.000,26.480 L387.160,26.480 L387.160,39.934 Z M393.703,51.026 Q390.200,51.026 388.680,53.769 Q387.160,56.500 387.160,62.129 L387.160,63.340 Q387.160,69.349 388.597,72.579 Q390.046,75.809 393.846,75.809 Q396.743,75.809 398.334,72.579 Q399.926,69.349 399.926,63.269 Q399.926,51.026 393.703,51.026 Z" fill="#ffe715"/>
</svg>